<?xml version="1.0" encoding="UTF-8" standalone="no"?>
<svg
   xmlns:dc="http://purl.org/dc/elements/1.1/"
   xmlns:cc="http://creativecommons.org/ns#"
   xmlns:rdf="http://www.w3.org/1999/02/22-rdf-syntax-ns#"
   xmlns:svg="http://www.w3.org/2000/svg"
   xmlns="http://www.w3.org/2000/svg"
   xmlns:sodipodi="http://sodipodi.sourceforge.net/DTD/sodipodi-0.dtd"
   xmlns:inkscape="http://www.inkscape.org/namespaces/inkscape"
   width="192"
   height="192"
   viewBox="0 0 192 192"
   version="1.1"
   id="svg8"
   inkscape:version="1.0.1 (3bc2e813f5, 2020-09-07, custom)"
   sodipodi:docname="logo.svg"
   inkscape:export-filename="/home/alex/Projects/handsfree-item-index-manipulator/logo.png"
   inkscape:export-xdpi="96"
   inkscape:export-ydpi="96">
  <defs
     id="defs2" />
  <sodipodi:namedview
     id="base"
     pagecolor="#ffffff"
     bordercolor="#666666"
     borderopacity="1.0"
     inkscape:pageopacity="0.0"
     inkscape:pageshadow="2"
     inkscape:zoom="3.959798"
     inkscape:cx="86.503065"
     inkscape:cy="99.615695"
     inkscape:document-units="px"
     inkscape:current-layer="layer1"
     inkscape:document-rotation="0"
     showgrid="false"
     units="px"
     inkscape:window-width="1920"
     inkscape:window-height="1016"
     inkscape:window-x="0"
     inkscape:window-y="0"
     inkscape:window-maximized="1" />
  <metadata
     id="metadata5">
    <rdf:RDF>
      <cc:Work
         rdf:about="">
        <dc:format>image/svg+xml</dc:format>
        <dc:type
           rdf:resource="http://purl.org/dc/dcmitype/StillImage" />
        <dc:title />
      </cc:Work>
    </rdf:RDF>
  </metadata>
  <g
     inkscape:label="Layer 1"
     inkscape:groupmode="layer"
     id="layer1">
    <path
       style="fill:#74b600;fill-opacity:1;stroke:#000000;stroke-width:1.12018;stroke-linecap:butt;stroke-linejoin:miter;stroke-miterlimit:4;stroke-dasharray:none;stroke-opacity:1"
       d="m 113.5614,33.95381 c 1.67548,-11.685181 2.48823,-20.105103 4.11883,-20.236932 2.32301,-0.187807 4.30614,11.436155 6.24875,11.558391 2.10471,0.132434 8.12321,-13.372931 10.90366,-12.446111 2.78046,0.92682 -1.89908,12.846398 -1.1653,15.857683 0.73377,3.011286 3.5986,2.459602 5.27375,1.184796 3.70913,-2.822681 7.70871,-8.447594 9.10519,-7.423574 1.39646,1.02402 -2.18333,10.145472 -4.28413,13.419374 -2.10078,3.273904 -6.52999,9.517742 -6.52999,9.517742 z"
       id="path1410"
       sodipodi:nodetypes="cssssssscc" />
    <path
       style="fill:#ff9959;fill-opacity:1;stroke:#000000;stroke-width:1.72336;stroke-linecap:butt;stroke-linejoin:miter;stroke-miterlimit:4;stroke-dasharray:none;stroke-opacity:1"
       d="m 106.69724,35.981293 c -10.303701,8.085013 -33.182232,68.666927 -43.242927,86.702757 -14.321898,25.67489 -20.280495,46.5727 -17.546097,50.67429 2.734395,4.10159 32.011428,-20.25907 44.589648,-36.93888 12.578236,-16.67981 33.743296,-46.318883 40.186286,-60.044872 7.00689,-14.92728 14.80855,-26.970149 -0.0339,-37.755436 -8.98863,-6.5316 -20.15294,-5.61965 -23.95299,-2.637859 z"
       id="path1408"
       sodipodi:nodetypes="sssssss" />
    <path
       style="fill:none;stroke:#000000;stroke-width:0.861679;stroke-linecap:butt;stroke-linejoin:miter;stroke-miterlimit:4;stroke-dasharray:none;stroke-opacity:1"
       d="m 95.175757,54.12423 c 4.110876,4.529654 10.553353,7.594309 14.756043,11.796995"
       id="path1414"
       sodipodi:nodetypes="cc" />
    <path
       style="fill:none;stroke:#000000;stroke-width:0.861679;stroke-linecap:butt;stroke-linejoin:miter;stroke-miterlimit:4;stroke-dasharray:none;stroke-opacity:1"
       d="m 92.118753,76.464478 c 8.434187,3.814107 12.236997,5.018049 19.901117,10.755198 2.17668,1.629399 3.70832,4.010498 5.85456,5.679791"
       id="path1416" />
    <path
       style="fill:none;stroke:#000000;stroke-width:0.861679;stroke-linecap:butt;stroke-linejoin:miter;stroke-miterlimit:4;stroke-dasharray:none;stroke-opacity:1"
       d="m 86.045318,111.16967 c 6.817152,4.54469 8.65421,4.77362 12.978667,10.01119 1.151935,1.39516 0.298356,1.57477 1.173455,1.86647"
       id="path1418"
       sodipodi:nodetypes="csc" />
    <path
       style="fill:none;stroke:#000000;stroke-width:0.861679;stroke-linecap:butt;stroke-linejoin:miter;stroke-miterlimit:4;stroke-dasharray:none;stroke-opacity:1"
       d="m 69.766446,143.0837 c 2.405085,1.90341 6.96181,4.29711 8.197596,7.54896"
       id="path1420"
       sodipodi:nodetypes="cc" />
  </g>
</svg>
